<svg xmlns="http://www.w3.org/2000/svg" shape-rendering="crispEdges" viewBox="0 0 32 32"><rect width="32" height="32" fill="#121212"/><g fill="#F0F"><path d="M4 12 h4 v-4 h4 v4 h4 v16 h-4 v-6 h-4 v6 h-4 z M8 12 v6 h4 v-6 z" transform="translate(2, 2)"/><path d="M18 8 h10 v4 h-6 v4 h6 v12 h-10 v-4 h6 v-4 h-6 z" transform="translate(2, 2)"/></g><g fill="#0FF"><path d="M4 12 h4 v-4 h4 v4 h4 v16 h-4 v-6 h-4 v6 h-4 z M8 12 v6 h4 v-6 z"/><path d="M18 8 h10 v4 h-6 v4 h6 v12 h-10 v-4 h6 v-4 h-6 z"/></g></svg>