<svg xmlns="http://www.w3.org/2000/svg" viewBox="0 0 32 32" shape-rendering="crispEdges">
  <!-- Background -->
  <rect width="32" height="32" fill="#121212" />
  
  <!-- Shadow (Magenta) -->
  <g transform="translate(2, 2)" fill="#FF00FF">
    <!-- A -->
    <path d="M4 12 h4 v-4 h4 v4 h4 v16 h-4 v-6 h-4 v6 h-4 z M8 12 v6 h4 v-6 z" />
    <!-- S -->
    <path d="M18 8 h10 v4 h-6 v4 h6 v12 h-10 v-4 h6 v-4 h-6 z" />
  </g>

  <!-- Main Text (Cyan) -->
  <g fill="#00FFFF">
    <!-- A -->
    <path d="M4 12 h4 v-4 h4 v4 h4 v16 h-4 v-6 h-4 v6 h-4 z M8 12 v6 h4 v-6 z" />
    <!-- S -->
    <path d="M18 8 h10 v4 h-6 v4 h6 v12 h-10 v-4 h6 v-4 h-6 z" />
  </g>
</svg>
